<?xml version="1.0" encoding="UTF-8" standalone="no"?>
<!-- Created with Inkscape (http://www.inkscape.org/) -->

<svg
   xmlns:dc="http://purl.org/dc/elements/1.1/"
   xmlns:cc="http://creativecommons.org/ns#"
   xmlns:rdf="http://www.w3.org/1999/02/22-rdf-syntax-ns#"
   xmlns:svg="http://www.w3.org/2000/svg"
   xmlns="http://www.w3.org/2000/svg"
   xmlns:sodipodi="http://sodipodi.sourceforge.net/DTD/sodipodi-0.dtd"
   xmlns:inkscape="http://www.inkscape.org/namespaces/inkscape"
   width="86"
   height="86"
   id="svg2"
   version="1.1"
   inkscape:version="0.48.2 r9819"
   sodipodi:docname="icon.svg"
   inkscape:export-filename="/Projekte/blackberry-native-wkspc/bbTeX/assets/icon.png"
   inkscape:export-xdpi="90"
   inkscape:export-ydpi="90">
  <defs
     id="defs4">
    <clipPath
       id="clipPath3140"
       clipPathUnits="userSpaceOnUse">
      <path
         id="path3142"
         d="M 0,0 96,0 96,37 0,37 0,0 z" />
    </clipPath>
    <filter
       inkscape:collect="always"
       id="filter3989"
       x="-0.225"
       width="1.45"
       y="-0.9"
       height="2.8">
      <feGaussianBlur
         inkscape:collect="always"
         stdDeviation="7.6525426"
         id="feGaussianBlur3991" />
    </filter>
    <filter
       inkscape:collect="always"
       id="filter4081"
       x="-0.43125002"
       width="1.8625"
       y="-0.98571419"
       height="2.9714284">
      <feGaussianBlur
         inkscape:collect="always"
         stdDeviation="11.524364"
         id="feGaussianBlur4083" />
    </filter>
    <clipPath
       clipPathUnits="userSpaceOnUse"
       id="clipPath4087">
      <rect
         y="995.33252"
         x="10.932203"
         height="28.059324"
         width="64.13559"
         id="rect4089"
         style="fill:#000000;fill-opacity:1;stroke:none" />
    </clipPath>
  </defs>
  <sodipodi:namedview
     id="base"
     pagecolor="#ffffff"
     bordercolor="#666666"
     borderopacity="1.0"
     inkscape:pageopacity="0.0"
     inkscape:pageshadow="2"
     inkscape:zoom="2.744186"
     inkscape:cx="47.899933"
     inkscape:cy="43"
     inkscape:document-units="px"
     inkscape:current-layer="layer1"
     showgrid="false"
     inkscape:window-width="1106"
     inkscape:window-height="731"
     inkscape:window-x="0"
     inkscape:window-y="0"
     inkscape:window-maximized="0" />
  <metadata
     id="metadata7">
    <rdf:RDF>
      <cc:Work
         rdf:about="">
        <dc:format>image/svg+xml</dc:format>
        <dc:type
           rdf:resource="http://purl.org/dc/dcmitype/StillImage" />
        <dc:title></dc:title>
      </cc:Work>
    </rdf:RDF>
  </metadata>
  <g
     inkscape:label="Ebene 1"
     inkscape:groupmode="layer"
     id="layer1"
     transform="translate(0,-966.36218)">
    <rect
       y="993.25232"
       x="4.1514702"
       height="35.371235"
       width="80.848526"
       id="rect3167"
       style="fill:#6c6753;fill-opacity:1;stroke:none" />
    <rect
       style="fill:#445500;fill-opacity:1;stroke:#000000;stroke-width:1.26058757"
       id="rect3165"
       width="80.848526"
       height="35.371235"
       x="1.6302949"
       y="990.73114" />
    <g
       transform="matrix(0.74564078,0,0,-0.74564078,6.3073342,1022.109)"
       inkscape:label="latex-image-1"
       id="g3132"
       style="fill:#ffffff">
      <g
         id="g3134"
         style="fill:#ffffff" />
      <g
         id="g3136"
         style="fill:#ffffff">
        <g
           clip-path="url(#clipPath3140)"
           id="g3138"
           style="fill:#ffffff">
          <path
             id="path3144"
             style="fill:#ffffff;fill-opacity:1;fill-rule:nonzero;stroke:none"
             d="m 5.67695,21.4391 0,11.3859 -5.169919,-0.3949 0,-1.1141 c 2.514059,0 2.799999,-0.2519 2.799999,-2.0109 l 0,-21.4051 0.89805,0 C 4.24102,7.93594 4.52812,8.439059 5.49883,10.127 6.03711,9.3 7.54609,7.50508 10.2039,7.50508 c 4.2731,0 8.0082,3.51992 8.0082,8.15272 0,4.5613 -3.5191,8.116 -7.6141,8.116 -2.79995,0 -4.34488,-1.6867 -4.91988,-2.334 l -0.00117,-7e-4 z m 0.10703,-9.445 0,7.3981 c 0,0.6828 0,0.7187 0.39493,1.2937 1.40195,2.011 3.376951,2.2981 4.23829,2.2981 1.6168,0 2.909,-0.934 3.7719,-2.2981 0.9339,-1.473 1.041,-3.5199 1.041,-4.9918 0,-1.33 -0.0723,-3.4839 -1.1121,-5.1 -0.7551,-1.11402 -2.1192,-2.29801 -4.0578,-2.29801 -1.617231,0 -2.90903,0.86094 -3.77231,2.19101 -0.50273,0.7551 -0.50273,0.8629 -0.50273,1.5078"
             inkscape:connector-curvature="0" />
          <path
             id="path3146"
             style="fill:#ffffff;fill-opacity:1;fill-rule:nonzero;stroke:none"
             d="m 20.277,25.2391 0,11.3859 -5.17,-0.3949 0,-1.1141 c 2.5141,0 2.8,-0.2519 2.8,-2.0109 l 0,-21.4051 0.8981,0 c 0.0359,0.0359 0.323,0.5391 1.2937,2.227 0.5383,-0.827 2.0473,-2.6219 4.7051,-2.6219 4.2731,0 8.0082,3.5199 8.0082,8.1527 0,4.5613 -3.5191,8.116 -7.6141,8.116 -2.8,0 -4.3449,-1.6867 -4.9199,-2.334 l -0.0011,-7e-4 z m 0.107,-9.445 0,7.3981 c 0,0.6828 0,0.7187 0.3949,1.2937 1.402,2.011 3.377,2.2981 4.2383,2.2981 1.6168,0 2.909,-0.934 3.7719,-2.2981 0.9339,-1.473 1.041,-3.5199 1.041,-4.9918 0,-1.33 -0.0723,-3.4839 -1.1121,-5.1 -0.7551,-1.114 -2.1192,-2.298 -4.0578,-2.298 -1.6172,0 -2.909,0.8609 -3.7723,2.191 -0.5027,0.7551 -0.5027,0.8629 -0.5027,1.5078"
             inkscape:connector-curvature="0" />
          <path
             id="path3148"
             style="fill:#ffffff;fill-opacity:1;fill-rule:nonzero;stroke:none"
             d="m 53.41911,32.2141 -21.94411,0 -0.6828,-8.0813 0.8976,0 C 32.193,29.916 32.732,31.1 38.1539,31.1 c 0.6473,0 1.5813,0 1.941,-0.0719 0.7531,-0.1441 0.7531,-0.5371 0.7531,-1.364 l 0,-18.927 c 0,-1.22226 0,-1.72304 -3.7699,-1.72304 l -1.4371,0 0,-1.11406 c 1.4731,0.10781 5.136,0.10781 6.7891,0.10781 1.6519,0 5.35,0 6.82301,-0.10781 l 0,1.11406 -1.43711,0 c -3.7699,0 -3.7699,0.50196 -3.7699,1.72304 l 0,18.927 c 0,0.7187 0,1.2199 0.6469,1.364 0.3949,0.0719 1.364,0.0719 2.0468,0.0719 5.4231,0 5.9614,-1.184 6.4641,-6.9672 l 0.8981,0 -0.68289,8.0813"
             inkscape:connector-curvature="0" />
          <path
             id="path3150"
             style="fill:#ffffff;fill-opacity:1;fill-rule:nonzero;stroke:none"
             d="m 54.284,2.90195 c 0,-1.29414 -0.0719,-1.68711 -2.8371,-1.68711 l -0.861,0 0,-1.113668 20.72191,0 1.50819,9.266018 -0.89689,0 c -0.898,-5.53125 -1.725,-8.15235 -7.90191,-8.15235 l -4.7774,0 c -1.6867,0 -1.7589,0.25 -1.7589,1.43633 l 0,9.58863 3.2312,0 c 3.48401,0 3.88011,-1.15 3.88011,-4.20191 l 0.8969,0 0,9.51721 -0.8969,0 c 0,-3.0891 -0.3953,-4.2031 -3.88011,-4.2031 l -3.2312,0 0,8.6199 c 0,1.184 0.0722,1.4359 1.7589,1.4359 l 4.6332,0 c 5.495,0 6.4641,-1.975 7.0391,-6.9668 l 0.8981,0 -1.00629,8.0809 -20.21871,0 0,-1.1141 0.8609,0 c 2.766,0 2.8379,-0.3949 2.8379,-1.6867 l 0,-18.81915"
             inkscape:connector-curvature="0" />
          <path
             id="path3152"
             style="fill:#ffffff;fill-opacity:1;fill-rule:nonzero;stroke:none"
             d="m 83.73791,21.7629 4.9199,7.2191 c 0.791,1.15 2.0113,2.2981 5.20819,2.334 l 0,1.1141 c -1.4019,-0.036 -3.089,-0.1082 -3.98709,-0.1082 -1.43591,0 -3.15901,0 -4.5969,0.1082 l 0,-1.1141 c 1.43789,-0.0359 2.22699,-0.825 2.22699,-1.6519 0,-0.359 -0.0719,-0.4313 -0.3219,-0.827 L 83.09221,22.768 78.459,29.6988 c -0.07189,0.1082 -0.252,0.3953 -0.252,0.5391 0,0.4312 0.791,1.041 2.334,1.0769 l 0,1.1141 c -1.25579,-0.1078 -3.8781,-0.1078 -5.24219,-0.1078 -1.11361,0 -3.341,0.0359 -4.6699,0.1078 l 0,-1.1141 0.68319,0 c 1.975,0 2.6578,-0.2519 3.341,-1.2558 l 6.6078,-9.984 -5.891,-8.691 C 74.868,10.6648 73.7898,9.01406 70.16411,9.01406 l 0,-1.11406 c 1.29179,0.03594 2.79999,0.10781 3.98589,0.10781 1.3281,0 3.3051,0 4.59691,-0.10781 l 0,1.11406 C 77.0949,9.05 76.48521,10.0191 76.48521,10.666 c 0,0.3231 0.10779,0.4668 0.3589,0.861 l 5.1,7.5421 5.6731,-8.5832 c 0.0719,-0.1437 0.1797,-0.2871 0.1797,-0.3949 0,-0.43084 -0.78911,-1.041 -2.334,-1.07694 l 0,-1.11406 c 1.2582,0.10781 3.88009,0.10781 5.24409,0.10781 1.50781,0 3.161,-0.035931 4.66921,-0.10781 l 0,1.11406 -0.68321,0 c -1.8668,0 -2.62,0.17813 -3.375,1.29184 l -7.5782,11.4562"
             inkscape:connector-curvature="0" />
        </g>
      </g>
    </g>
    <rect
       y="989.33252"
       x="6.9322033"
       height="28.059324"
       width="64.13559"
       id="rect4067"
       style="opacity:0.55;fill:#ffffff;fill-opacity:1;stroke:none;filter:url(#filter4081)"
       clip-path="url(#clipPath4087)"
       transform="matrix(1.2605876,0,0,1.2605876,-12.150705,-263.97271)" />
  </g>
</svg>
